<?xml version="1.0" encoding="UTF-8"?>
<!DOCTYPE svg PUBLIC "-//W3C//DTD SVG 1.1//EN" "http://www.w3.org/Graphics/SVG/1.1/DTD/svg11.dtd">
<!-- Creator: CorelDRAW 2018 (64-Bit) -->
<svg xmlns="http://www.w3.org/2000/svg" xml:space="preserve" width="50px" height="40px" version="1.1" style="shape-rendering:geometricPrecision; text-rendering:geometricPrecision; image-rendering:optimizeQuality; fill-rule:evenodd; clip-rule:evenodd"
viewBox="0 0 4.05 3.26"
 xmlns:xlink="http://www.w3.org/1999/xlink">
 <defs>
  <style type="text/css">
   <![CDATA[
    .fil0 {fill:gray;fill-rule:nonzero}
   ]]>
  </style>
 </defs>
 <g id="Layer_x0020_1">
  <metadata id="CorelCorpID_0Corel-Layer"/>
  <g id="_2543837421168">
   <path class="fil0" d="M2.52 0.89c-0.14,0 -0.27,0.02 -0.39,0.07 -0.04,0.02 -0.06,0.07 -0.04,0.11 0.02,0.04 0.06,0.06 0.1,0.04 0.11,-0.04 0.21,-0.07 0.33,-0.07 0.46,0 0.84,0.38 0.84,0.84 0,0.47 -0.38,0.84 -0.84,0.84 -0.47,0 -0.84,-0.37 -0.84,-0.84 0,-0.11 0.02,-0.22 0.06,-0.32 0.02,-0.04 0,-0.09 -0.04,-0.1 -0.04,-0.02 -0.09,0 -0.1,0.04 -0.05,0.12 -0.08,0.25 -0.08,0.38 0,0.55 0.45,1 1,1 0.55,0 0.99,-0.45 0.99,-1 0,-0.55 -0.44,-0.99 -0.99,-0.99z"/>
   <path class="fil0" d="M2.52 2.53c0.35,0 0.65,-0.29 0.65,-0.65 0,-0.35 -0.3,-0.65 -0.65,-0.65 -0.36,0 -0.65,0.3 -0.65,0.65 0,0.36 0.29,0.65 0.65,0.65zm0 -1.14c0.27,0 0.49,0.22 0.49,0.49 0,0.27 -0.22,0.49 -0.49,0.49 -0.27,0 -0.49,-0.22 -0.49,-0.49 0,-0.27 0.22,-0.49 0.49,-0.49z"/>
   <path class="fil0" d="M3.65 0.51l-0.24 0 -0.28 -0.47c-0.01,-0.03 -0.04,-0.04 -0.06,-0.04l-1.1 0c-0.03,0 -0.06,0.01 -0.07,0.04l-0.28 0.47 -0.45 0 0 -0.1c0,-0.16 -0.13,-0.28 -0.28,-0.28 -0.16,0 -0.29,0.12 -0.29,0.28l0 0.1 -0.2 0c-0.22,0 -0.4,0.18 -0.4,0.4l0 1.95c0,0.22 0.18,0.4 0.4,0.4l3.25 0c0.22,0 0.4,-0.18 0.4,-0.4l0 -1.95c0,-0.22 -0.18,-0.4 -0.4,-0.4zm-1.64 -0.35l1.01 0 0.21 0.35 -1.42 0 0.2 -0.35zm-1.25 0.25c0,-0.07 0.06,-0.13 0.13,-0.13 0.07,0 0.12,0.06 0.12,0.13l0 0.1 -0.25 0 0 -0.1zm3.13 2.45c0,0.13 -0.11,0.24 -0.24,0.24l-3.25 0c-0.13,0 -0.24,-0.11 -0.24,-0.24l0 -1.95c0,-0.14 0.11,-0.25 0.24,-0.25l3.25 0c0.13,0 0.24,0.11 0.24,0.25l0 1.95z"/>
   <path class="fil0" d="M2.52 1.73c0.08,0 0.15,0.07 0.15,0.15 0,0.05 0.04,0.08 0.08,0.08 0.04,0 0.08,-0.03 0.08,-0.08 0,-0.17 -0.14,-0.31 -0.31,-0.31 -0.05,0 -0.08,0.04 -0.08,0.08 0,0.04 0.03,0.08 0.08,0.08z"/>
   <path class="fil0" d="M1.09 1.16l-0.41 0c-0.04,0 -0.08,0.03 -0.08,0.07 0,0.05 0.04,0.08 0.08,0.08l0.41 0c0.05,0 0.08,-0.03 0.08,-0.08 0,-0.04 -0.03,-0.07 -0.08,-0.07z"/>
   <path class="fil0" d="M1.87 1.31c0.02,0 0.04,0 0.05,-0.02 0.02,-0.01 0.03,-0.03 0.03,-0.06 0,-0.02 -0.01,-0.04 -0.03,-0.05 -0.01,-0.02 -0.03,-0.02 -0.05,-0.02 -0.02,0 -0.04,0 -0.06,0.02 -0.01,0.01 -0.02,0.03 -0.02,0.05 0,0.03 0.01,0.05 0.02,0.06 0.02,0.02 0.04,0.02 0.06,0.02z"/>
  </g>
 </g>
</svg>
