<?xml version="1.0" encoding="UTF-8"?>
<!DOCTYPE svg PUBLIC "-//W3C//DTD SVG 1.1//EN" "http://www.w3.org/Graphics/SVG/1.1/DTD/svg11.dtd">
<!-- Creator: CorelDRAW 2018 (64-Bit) -->
<svg xmlns="http://www.w3.org/2000/svg" xml:space="preserve" width="161px" height="244px" version="1.1" style="shape-rendering:geometricPrecision; text-rendering:geometricPrecision; image-rendering:optimizeQuality; fill-rule:evenodd; clip-rule:evenodd"
viewBox="0 0 16.26 24.69"
 xmlns:xlink="http://www.w3.org/1999/xlink">
 <defs>
  <style type="text/css">
   <![CDATA[
    .fil0 {fill:black;fill-rule:nonzero}
   ]]>
  </style>
 </defs>
 <g id="Layer_x0020_1">
  <metadata id="CorelCorpID_0Corel-Layer"/>
  <g id="_2200252429568">
   <path class="fil0" d="M15.27 23.07l-6.8 -6.19c-0.19,-0.18 -0.48,-0.18 -0.67,0l-6.8 6.19 0 -22.07 14.27 0 0 22.07zm0.99 1.17l0 -23.79c-0.02,-0.25 -0.23,-0.45 -0.49,-0.45l-15.27 0c-0.28,0 -0.5,0.22 -0.5,0.5l0 23.7c0,0.19 0.12,0.37 0.3,0.45 0.06,0.03 0.12,0.04 0.19,0.04l0.01 0c0.12,0 0.24,-0.04 0.33,-0.13l7.3 -6.64 7.31 6.64c0.2,0.19 0.51,0.17 0.7,-0.03 0.07,-0.08 0.11,-0.18 0.12,-0.29z"/>
   <path class="fil0" d="M6.67 7.65c0.16,-0.02 0.3,-0.13 0.37,-0.27l1.09 -2.22 1.1 2.22c0.07,0.14 0.21,0.25 0.37,0.27l2.45 0.35 -1.77 1.76c-0.12,0.11 -0.17,0.28 -0.15,0.44l0.42 2.43 -2.19 -1.15c-0.14,-0.08 -0.32,-0.08 -0.46,0l-2.19 1.15 0.42 -2.44c0.03,-0.16 -0.02,-0.32 -0.14,-0.43l-1.77 -1.73 2.45 -0.38zm-1.56 2.61l-0.53 3.19c-0.05,0.28 0.14,0.53 0.41,0.58 0.11,0.01 0.22,0 0.31,-0.05l2.85 -1.5 2.85 1.5c0.24,0.12 0.54,0.03 0.67,-0.21 0.05,-0.1 0.07,-0.21 0.05,-0.32l-0.56 -3.19 2.3 -2.25c0.2,-0.19 0.21,-0.5 0.02,-0.7 -0.08,-0.08 -0.18,-0.13 -0.29,-0.15l-3.18 -0.46 -1.45 -2.86c-0.12,-0.25 -0.42,-0.35 -0.67,-0.23 -0.09,0.05 -0.17,0.13 -0.22,0.23l-1.42 2.88 -3.19 0.47c-0.27,0.04 -0.46,0.29 -0.42,0.56 0.02,0.11 0.07,0.21 0.15,0.29l2.32 2.22z"/>
  </g>
 </g>
</svg>
