<?xml version="1.0" encoding="UTF-8"?>
<!DOCTYPE svg PUBLIC "-//W3C//DTD SVG 1.1//EN" "http://www.w3.org/Graphics/SVG/1.1/DTD/svg11.dtd">
<!-- Creator: CorelDRAW 2018 (64-Bit) -->
<svg xmlns="http://www.w3.org/2000/svg" xml:space="preserve" width="161px" height="244px" version="1.1" style="shape-rendering:geometricPrecision; text-rendering:geometricPrecision; image-rendering:optimizeQuality; fill-rule:evenodd; clip-rule:evenodd"
viewBox="0 0 9.38 14.24"
 xmlns:xlink="http://www.w3.org/1999/xlink">
 <defs>
  <style type="text/css">
   <![CDATA[
    .fil0 {fill:black;fill-rule:nonzero}
    .fil1 {fill:white;fill-rule:nonzero}
   ]]>
  </style>
 </defs>
 <g id="Layer_x0020_1">
  <metadata id="CorelCorpID_0Corel-Layer"/>
  <g id="_2200252439744">
   <path class="fil0" d="M9.38 13.98l0 -13.72c-0.01,-0.15 -0.14,-0.26 -0.29,-0.26l-8.8 0c-0.16,0 -0.29,0.13 -0.29,0.29l0 13.66c0,0.12 0.07,0.22 0.17,0.27 0.04,0.01 0.07,0.02 0.11,0.02l0.01 0c0.07,0 0.14,-0.03 0.19,-0.07l4.21 -3.84 4.21 3.84c0.12,0.1 0.3,0.09 0.41,-0.02 0.04,-0.05 0.06,-0.11 0.07,-0.17z"/>
   <path class="fil1" d="M3.85 4.41c0.09,-0.01 0.17,-0.07 0.21,-0.16l0.63 -1.27 0.64 1.27c0.04,0.09 0.12,0.15 0.21,0.16l1.41 0.21 -1.02 1.01c-0.07,0.06 -0.1,0.16 -0.08,0.25l0.24 1.4 -1.26 -0.66c-0.09,-0.04 -0.19,-0.04 -0.27,0l-1.26 0.66 0.24 -1.4c0.02,-0.09 -0.02,-0.19 -0.08,-0.25l-1.02 -1 1.41 -0.22zm-0.9 1.51l-0.31 1.84c-0.02,0.16 0.08,0.3 0.24,0.33 0.06,0.01 0.13,0 0.18,-0.03l1.64 -0.86 1.64 0.86c0.15,0.07 0.32,0.02 0.39,-0.12 0.03,-0.06 0.04,-0.12 0.03,-0.18l-0.32 -1.84 1.33 -1.3c0.11,-0.11 0.12,-0.29 0.01,-0.4 -0.05,-0.05 -0.11,-0.08 -0.17,-0.09l-1.84 -0.27 -0.83 -1.65c-0.07,-0.14 -0.24,-0.2 -0.38,-0.13 -0.06,0.03 -0.11,0.08 -0.13,0.13l-0.82 1.67 -1.84 0.27c-0.16,0.02 -0.27,0.16 -0.24,0.32 0.01,0.06 0.04,0.12 0.08,0.17l1.34 1.28z"/>
  </g>
 </g>
</svg>
