<?xml version="1.0" encoding="UTF-8"?>
<!DOCTYPE svg PUBLIC "-//W3C//DTD SVG 1.1//EN" "http://www.w3.org/Graphics/SVG/1.1/DTD/svg11.dtd">
<!-- Creator: CorelDRAW 2018 (64-Bit) -->
<svg xmlns="http://www.w3.org/2000/svg" xml:space="preserve" width="244px" height="244px" version="1.1" style="shape-rendering:geometricPrecision; text-rendering:geometricPrecision; image-rendering:optimizeQuality; fill-rule:evenodd; clip-rule:evenodd"
viewBox="0 0 175.37 175.26"
 xmlns:xlink="http://www.w3.org/1999/xlink">
 <defs>
  <style type="text/css">
   <![CDATA[
    .fil0 {fill:black;fill-rule:nonzero}
   ]]>
  </style>
 </defs>
 <g id="Layer_x0020_1">
  <metadata id="CorelCorpID_0Corel-Layer"/>
  <g id="_2200008635520">
   <path class="fil0" d="M108.92 72.5c-5.75,0 -11.35,1.12 -16.62,3.32 -1.75,0.73 -2.57,2.74 -1.84,4.49 0.73,1.74 2.73,2.56 4.48,1.83 4.43,-1.85 9.14,-2.79 13.98,-2.79 20.02,0 36.31,16.29 36.31,36.31 0,20.02 -16.29,36.31 -36.31,36.31 -20.02,0 -36.3,-16.29 -36.3,-36.31 0,-4.84 0.93,-9.54 2.78,-13.96 0.73,-1.75 -0.1,-3.75 -1.84,-4.48 -1.75,-0.73 -3.76,0.1 -4.48,1.84 -2.2,5.27 -3.31,10.85 -3.31,16.6 0,23.8 19.36,43.16 43.15,43.16 23.8,0 43.16,-19.36 43.16,-43.16 0,-23.79 -19.36,-43.16 -43.16,-43.16z"/>
   <path class="fil0" d="M108.92 143.75c15.49,0 28.09,-12.6 28.09,-28.09 0,-15.48 -12.6,-28.08 -28.09,-28.08 -15.48,0 -28.08,12.6 -28.08,28.08 0,15.49 12.6,28.09 28.08,28.09zm0 -49.32c11.71,0 21.24,9.52 21.24,21.23 0,11.71 -9.53,21.24 -21.24,21.24 -11.71,0 -21.23,-9.53 -21.23,-21.24 0,-11.71 9.52,-21.23 21.23,-21.23z"/>
   <path class="fil0" d="M158 56.06l-10.42 0 -11.96 -20.23c-0.61,-1.05 -1.74,-1.69 -2.95,-1.69l-47.49 0c-1.21,0 -2.34,0.64 -2.95,1.69l-11.96 20.23 -19.58 0 0 -4.11c0,-6.8 -5.53,-12.33 -12.33,-12.33 -6.8,0 -12.33,5.53 -12.33,12.33l0 4.11 -8.66 0c-9.58,0 -17.37,7.8 -17.37,17.38l0 84.45c0,9.58 7.79,17.37 17.37,17.37l140.63 0c9.58,0 17.37,-7.79 17.37,-17.37l0 -84.45c0,-9.58 -7.79,-17.38 -17.37,-17.38zm-70.87 -15.07l43.59 0 8.9 15.07 -61.39 0 8.9 -15.07zm-54.25 10.96c0,-3.02 2.46,-5.48 5.48,-5.48 3.02,0 5.48,2.46 5.48,5.48l0 4.11 -10.96 0 0 -4.11zm135.64 105.94c0,5.8 -4.72,10.52 -10.52,10.52l-140.63 0c-5.8,0 -10.52,-4.72 -10.52,-10.52l0 -84.45c0,-5.81 4.72,-10.53 10.52,-10.53l140.63 0c5.8,0 10.52,4.72 10.52,10.53l0 84.45z"/>
   <path class="fil0" d="M108.92 108.98c3.69,0 6.68,3 6.68,6.68 0,1.89 1.54,3.43 3.43,3.43 1.89,0 3.42,-1.54 3.42,-3.43 0,-7.46 -6.07,-13.53 -13.53,-13.53 -1.89,0 -3.42,1.54 -3.42,3.43 0,1.89 1.53,3.42 3.42,3.42z"/>
   <path class="fil0" d="M108.92 25.13c1.9,0 3.43,-1.53 3.43,-3.42l0 -18.28c0,-1.9 -1.53,-3.43 -3.43,-3.43 -1.89,0 -3.42,1.53 -3.42,3.43l0 18.28c0,1.89 1.53,3.42 3.42,3.42z"/>
   <path class="fil0" d="M125.22 25.13c0.88,0 1.76,-0.33 2.43,-1l12.56 -12.57c1.34,-1.34 1.34,-3.51 0,-4.84 -1.34,-1.34 -3.5,-1.34 -4.84,0l-12.57 12.57c-1.34,1.33 -1.34,3.5 0,4.84 0.67,0.67 1.55,1 2.42,1z"/>
   <path class="fil0" d="M90.2 24.13c0.67,0.67 1.55,1 2.43,1 0.87,0 1.75,-0.33 2.42,-1 1.33,-1.34 1.33,-3.51 0,-4.84l-12.57 -12.57c-1.34,-1.34 -3.51,-1.34 -4.84,0 -1.34,1.33 -1.34,3.5 0,4.84l12.56 12.57z"/>
   <path class="fil0" d="M47.27 84.15l-17.81 0c-1.89,0 -3.43,1.53 -3.43,3.43 0,1.89 1.54,3.42 3.43,3.42l17.81 0c1.89,0 3.42,-1.53 3.42,-3.42 0,-1.9 -1.53,-3.43 -3.42,-3.43z"/>
   <path class="fil0" d="M80.82 91c0.9,0 1.79,-0.36 2.42,-1 0.64,-0.64 1.01,-1.52 1.01,-2.42 0,-0.91 -0.37,-1.79 -1.01,-2.43 -0.63,-0.63 -1.52,-1 -2.42,-1 -0.9,0 -1.78,0.37 -2.42,1 -0.64,0.64 -1,1.53 -1,2.43 0,0.9 0.36,1.78 1,2.42 0.64,0.64 1.52,1 2.42,1z"/>
  </g>
 </g>
</svg>
