<?xml version="1.0" encoding="UTF-8"?>
<!DOCTYPE svg PUBLIC "-//W3C//DTD SVG 1.1//EN" "http://www.w3.org/Graphics/SVG/1.1/DTD/svg11.dtd">
<!-- Creator: CorelDRAW 2018 (64-Bit) -->
<svg xmlns="http://www.w3.org/2000/svg" xml:space="preserve" width="207px" height="171px" version="1.1" style="shape-rendering:geometricPrecision; text-rendering:geometricPrecision; image-rendering:optimizeQuality; fill-rule:evenodd; clip-rule:evenodd"
viewBox="0 0 15.75 13.02"
 xmlns:xlink="http://www.w3.org/1999/xlink">
 <defs>
  <style type="text/css">
   <![CDATA[
    .fil2 {fill:#F6A95C;fill-rule:nonzero}
    .fil3 {fill:#EF9045;fill-rule:nonzero}
    .fil0 {fill:#E1E4E6;fill-rule:nonzero}
    .fil1 {fill:#D1CFCF;fill-rule:nonzero}
    .fil7 {fill:#677C82;fill-rule:nonzero}
    .fil6 {fill:#546269;fill-rule:nonzero}
    .fil8 {fill:#475258;fill-rule:nonzero}
    .fil4 {fill:#00ADD5;fill-rule:nonzero}
    .fil5 {fill:#009CBF;fill-rule:nonzero}
   ]]>
  </style>
 </defs>
 <g id="Layer_x0020_1">
  <metadata id="CorelCorpID_0Corel-Layer"/>
  <g id="_2200339398016">
   <path class="fil0" d="M3.11 3.14l0 -2.25c0,-0.19 -0.15,-0.34 -0.35,-0.34l-1.15 0c-0.19,0 -0.34,0.15 -0.34,0.34l0 2.25 1.84 0z"/>
   <path class="fil1" d="M2.11 3.14l0 -2.59 -0.5 0c-0.19,0 -0.34,0.15 -0.34,0.34l0 2.25 0.84 0z"/>
   <path class="fil2" d="M15.75 3.55l0 8.42c0,0.58 -0.47,1.05 -1.05,1.05l-13.65 0c-0.58,0 -1.05,-0.47 -1.05,-1.05l0 -8.42c0,-0.58 0.47,-1.04 1.05,-1.04l2.06 0c0.45,0 0.84,-0.29 0.99,-0.71l0.38 -1.1c0.15,-0.42 0.54,-0.7 0.99,-0.7l6.1 0c0.44,0 0.84,0.28 0.98,0.7l0.39 1.1c0.14,0.42 0.54,0.71 0.98,0.71l0.78 0c0.58,0 1.05,0.46 1.05,1.04z"/>
   <path class="fil3" d="M1.86 13.02l-0.81 0c-0.58,0 -1.05,-0.47 -1.05,-1.05l0 -8.42c0,-0.58 0.47,-1.04 1.05,-1.04l0.75 0 0 0c-0.55,0.03 -0.98,0.49 -0.98,1.04l0 8.42c0,0.58 0.47,1.05 1.04,1.05z"/>
   <path class="fil3" d="M6.29 0c-0.45,0 -0.84,0.28 -0.99,0.7l-0.38 1.1c-0.15,0.42 -0.54,0.71 -0.99,0.71l-0.7 0 0 -0.01c0.4,-0.05 0.74,-0.31 0.87,-0.7l0.38 -1.1c0.15,-0.42 0.54,-0.7 0.99,-0.7l0.82 0z"/>
   <path class="fil4" d="M15.75 5.35l0 6.62c0,0.58 -0.47,1.05 -1.05,1.05l-13.65 0c-0.58,0 -1.05,-0.47 -1.05,-1.05l0 -6.62 15.75 0z"/>
   <path class="fil5" d="M1.86 13.02l-0.81 0c-0.58,0 -1.05,-0.47 -1.05,-1.05l0 -6.62 0.82 0 0 6.62c0,0.58 0.47,1.05 1.04,1.05z"/>
   <path class="fil0" d="M7.87 3.33c2.41,0 4.36,1.95 4.36,4.35 0,2.41 -1.95,4.36 -4.36,4.36 -2.4,0 -4.35,-1.95 -4.35,-4.36 0,-2.4 1.95,-4.35 4.35,-4.35z"/>
   <path class="fil6" d="M10.95 7.68c0,0.91 -0.39,1.72 -1.01,2.29 -0.55,0.49 -1.27,0.79 -2.07,0.79 -0.79,0 -1.51,-0.3 -2.06,-0.79 -0.62,-0.57 -1.01,-1.38 -1.01,-2.29 0,-0.91 0.39,-1.72 1.01,-2.28 0.55,-0.5 1.27,-0.8 2.06,-0.8 0.8,0 1.52,0.3 2.07,0.8 0.62,0.56 1.01,1.37 1.01,2.28z"/>
   <path class="fil7" d="M10.05 5.5c0.64,0.65 0.94,1.5 0.9,2.34 -0.84,0.04 -1.69,-0.26 -2.33,-0.9 -0.65,-0.64 -0.95,-1.49 -0.9,-2.33 0.84,-0.05 1.69,0.25 2.33,0.89z"/>
   <path class="fil7" d="M7.13 8.42c0.64,0.64 0.94,1.5 0.9,2.34 -0.84,0.04 -1.69,-0.26 -2.33,-0.9 -0.64,-0.64 -0.94,-1.5 -0.9,-2.34 0.84,-0.04 1.69,0.26 2.33,0.9z"/>
   <path class="fil8" d="M7.87 4.84c-1.56,0 -2.83,1.28 -2.83,2.84 0,1.57 1.27,2.84 2.83,2.84 1.57,0 2.84,-1.27 2.84,-2.84 0,-1.56 -1.27,-2.84 -2.84,-2.84zm0 6.16c-1.83,0 -3.32,-1.49 -3.32,-3.32 0,-1.83 1.49,-3.32 3.32,-3.32 1.84,0 3.32,1.49 3.32,3.32 0,1.83 -1.48,3.32 -3.32,3.32z"/>
   <path class="fil8" d="M7.87 6.45c-0.68,0 -1.23,0.55 -1.23,1.23 0,0.68 0.55,1.24 1.23,1.24 0.69,0 1.24,-0.56 1.24,-1.24 0,-0.68 -0.55,-1.23 -1.24,-1.23z"/>
   <path class="fil0" d="M9.44 2.27l1.89 0c0.25,0 0.45,-0.21 0.45,-0.46l0 -0.49c0,-0.25 -0.2,-0.45 -0.45,-0.45l-1.89 0c-0.25,0 -0.45,0.2 -0.45,0.45l0 0.49c0,0.25 0.2,0.46 0.45,0.46z"/>
   <path class="fil3" d="M9.44 1.11c-0.12,0 -0.21,0.09 -0.21,0.21l0 0.49c0,0.12 0.09,0.21 0.21,0.21l1.89 0c0.12,0 0.21,-0.09 0.21,-0.21l0 -0.49c0,-0.12 -0.09,-0.21 -0.21,-0.21l-1.89 0zm1.89 1.4l-1.89 0c-0.38,0 -0.69,-0.31 -0.69,-0.7l0 -0.49c0,-0.38 0.31,-0.69 0.69,-0.69l1.89 0c0.38,0 0.7,0.31 0.7,0.69l0 0.49c0,0.39 -0.32,0.7 -0.7,0.7z"/>
   <path class="fil6" d="M2.99 10.38c0.49,0 0.88,0.39 0.88,0.87 0,0.48 -0.39,0.87 -0.88,0.87 -0.48,0 -0.87,-0.39 -0.87,-0.87 0,-0.48 0.39,-0.87 0.87,-0.87z"/>
  </g>
 </g>
</svg>
