<?xml version="1.0" encoding="UTF-8"?>
<!DOCTYPE svg PUBLIC "-//W3C//DTD SVG 1.1//EN" "http://www.w3.org/Graphics/SVG/1.1/DTD/svg11.dtd">
<!-- Creator: CorelDRAW 2018 (64-Bit) -->
<svg xmlns="http://www.w3.org/2000/svg" xml:space="preserve" width="257px" height="207px" version="1.1" style="shape-rendering:geometricPrecision; text-rendering:geometricPrecision; image-rendering:optimizeQuality; fill-rule:evenodd; clip-rule:evenodd"
viewBox="0 0 20.76 16.7"
 xmlns:xlink="http://www.w3.org/1999/xlink">
 <defs>
  <style type="text/css">
   <![CDATA[
    .fil0 {fill:#00B800;fill-rule:nonzero}
   ]]>
  </style>
 </defs>
 <g id="Layer_x0020_1">
  <metadata id="CorelCorpID_0Corel-Layer"/>
  <g id="_2200336648144">
   <path class="fil0" d="M12.89 4.54c-0.68,0 -1.34,0.13 -1.97,0.39 -0.2,0.09 -0.3,0.33 -0.21,0.53 0.08,0.21 0.32,0.31 0.53,0.22 0.52,-0.22 1.08,-0.33 1.65,-0.33 2.37,0 4.3,1.93 4.3,4.3 0,2.37 -1.93,4.3 -4.3,4.3 -2.37,0 -4.29,-1.93 -4.29,-4.3 0,-0.57 0.11,-1.13 0.32,-1.65 0.09,-0.21 -0.01,-0.45 -0.21,-0.53 -0.21,-0.09 -0.45,0.01 -0.53,0.21 -0.26,0.63 -0.4,1.29 -0.4,1.97 0,2.82 2.3,5.11 5.11,5.11 2.82,0 5.11,-2.29 5.11,-5.11 0,-2.82 -2.29,-5.11 -5.11,-5.11z"/>
   <path class="fil0" d="M12.89 12.97c1.84,0 3.33,-1.49 3.33,-3.32 0,-1.83 -1.49,-3.33 -3.33,-3.33 -1.83,0 -3.32,1.5 -3.32,3.33 0,1.83 1.49,3.32 3.32,3.32zm0 -5.83c1.39,0 2.52,1.12 2.52,2.51 0,1.38 -1.13,2.51 -2.52,2.51 -1.38,0 -2.51,-1.13 -2.51,-2.51 0,-1.39 1.13,-2.51 2.51,-2.51z"/>
   <path class="fil0" d="M18.7 2.59l-1.23 0 -1.42 -2.39c-0.07,-0.12 -0.2,-0.2 -0.35,-0.2l-5.62 0c-0.14,0 -0.27,0.08 -0.35,0.2l-1.41 2.39 -2.32 0 0 -0.48c0,-0.81 -0.65,-1.46 -1.46,-1.46 -0.8,0 -1.46,0.65 -1.46,1.46l0 0.48 -1.02 0c-1.14,0 -2.06,0.93 -2.06,2.06l0 10c0,1.13 0.92,2.05 2.06,2.05l16.64 0c1.13,0 2.06,-0.92 2.06,-2.05l0 -10c0,-1.13 -0.93,-2.06 -2.06,-2.06zm-8.39 -1.78l5.16 0 1.06 1.78 -7.27 0 1.05 -1.78zm-6.42 1.3c0,-0.36 0.29,-0.65 0.65,-0.65 0.36,0 0.65,0.29 0.65,0.65l0 0.48 -1.3 0 0 -0.48zm16.06 12.54c0,0.68 -0.56,1.24 -1.25,1.24l-16.64 0c-0.69,0 -1.25,-0.56 -1.25,-1.24l0 -10c0,-0.69 0.56,-1.24 1.25,-1.24l16.64 0c0.69,0 1.25,0.55 1.25,1.24l0 10z"/>
   <path class="fil0" d="M12.89 8.86c0.44,0 0.79,0.35 0.79,0.79 0,0.22 0.18,0.4 0.41,0.4 0.22,0 0.4,-0.18 0.4,-0.4 0,-0.88 -0.71,-1.6 -1.6,-1.6 -0.22,0 -0.4,0.18 -0.4,0.4 0,0.23 0.18,0.41 0.4,0.41z"/>
   <path class="fil0" d="M5.59 5.92l-2.1 0c-0.23,0 -0.41,0.18 -0.41,0.4 0,0.23 0.18,0.41 0.41,0.41l2.1 0c0.23,0 0.41,-0.18 0.41,-0.41 0,-0.22 -0.18,-0.4 -0.41,-0.4z"/>
   <path class="fil0" d="M9.57 6.73c0.1,0 0.21,-0.04 0.28,-0.12 0.08,-0.07 0.12,-0.18 0.12,-0.29 0,-0.1 -0.04,-0.21 -0.12,-0.28 -0.07,-0.08 -0.18,-0.12 -0.28,-0.12 -0.11,0 -0.21,0.04 -0.29,0.12 -0.08,0.07 -0.12,0.18 -0.12,0.28 0,0.11 0.04,0.22 0.12,0.29 0.08,0.08 0.18,0.12 0.29,0.12z"/>
  </g>
 </g>
</svg>
