<?xml version="1.0" encoding="UTF-8"?>
<!DOCTYPE svg PUBLIC "-//W3C//DTD SVG 1.1//EN" "http://www.w3.org/Graphics/SVG/1.1/DTD/svg11.dtd">
<!-- Creator: CorelDRAW 2018 (64-Bit) -->
<svg xmlns="http://www.w3.org/2000/svg" xml:space="preserve" width="221px" height="207px" version="1.1" style="shape-rendering:geometricPrecision; text-rendering:geometricPrecision; image-rendering:optimizeQuality; fill-rule:evenodd; clip-rule:evenodd"
viewBox="0 0 134.13 125.54"
 xmlns:xlink="http://www.w3.org/1999/xlink">
 <defs>
  <style type="text/css">
   <![CDATA[
    .fil0 {fill:black;fill-rule:nonzero}
   ]]>
  </style>
 </defs>
 <g id="Layer_x0020_1">
  <metadata id="CorelCorpID_0Corel-Layer"/>
  <g id="_2200339372288">
   <path class="fil0" d="M126.08 39.17l-18.24 0 0 -31.12c-0.01,-4.14 -3.37,-7.5 -7.51,-7.51l-92.28 0c-4.14,0.01 -7.5,3.37 -7.51,7.51l0 53.65c0.01,4.15 3.37,7.5 7.51,7.51l9.66 0 0 15.02c0,0.87 0.52,1.65 1.32,1.98 0.81,0.34 1.73,0.15 2.34,-0.46l4.92 -4.92 0 19.49c0.01,4.15 3.37,7.51 7.51,7.51l62.42 0 16.53 16.54c0.62,0.62 1.54,0.8 2.34,0.47 0.81,-0.33 1.33,-1.12 1.33,-1.99l0 -15.02 9.66 0c4.14,0 7.5,-3.36 7.51,-7.51l0 -53.64c-0.01,-4.15 -3.37,-7.51 -7.51,-7.51zm-104.08 39.88l0 -11.99c0,-1.18 -0.96,-2.14 -2.14,-2.14l-11.81 0c-1.77,0 -3.21,-1.44 -3.22,-3.22l0 -53.65c0.01,-1.77 1.45,-3.22 3.22,-3.22l92.28 0c1.77,0 3.21,1.45 3.21,3.22l0 53.65c0,1.78 -1.44,3.22 -3.21,3.22l-63.31 0c-0.57,0 -1.11,0.22 -1.52,0.62l-13.5 13.51zm107.29 21.27c0,1.78 -1.44,3.22 -3.21,3.22l-11.81 0c-1.18,0 -2.14,0.96 -2.14,2.15l0 11.98 -13.5 -13.5c-0.41,-0.4 -0.95,-0.63 -1.52,-0.63l-63.31 0c-1.77,0 -3.21,-1.44 -3.22,-3.22l0 -23.79 7.33 -7.32 62.42 0c4.14,-0.01 7.5,-3.36 7.51,-7.51l0 -18.24 18.24 0c1.77,0 3.21,1.44 3.21,3.22l0 53.64z"/>
   <path class="fil0" d="M126.08 39.71l-18.79 0 0 -31.66c0,-1.92 -0.78,-3.66 -2.04,-4.92 -1.26,-1.26 -3,-2.05 -4.92,-2.05l-92.28 0c-1.92,0 -3.66,0.79 -4.92,2.05 -1.26,1.26 -2.05,3 -2.05,4.92l0 53.65c0,1.92 0.79,3.66 2.05,4.92 1.26,1.27 3,2.05 4.92,2.05l10.2 0 0 15.56c0,0.33 0.1,0.63 0.27,0.89 0.17,0.26 0.42,0.47 0.72,0.59 0.3,0.13 0.62,0.16 0.93,0.09 0.3,-0.06 0.59,-0.21 0.82,-0.44l5.84 -5.84 0 20.8c0,1.92 0.79,3.67 2.05,4.93 1.26,1.26 3,2.04 4.92,2.04l62.64 0 16.7 16.7c0.23,0.23 0.51,0.38 0.82,0.44 0.31,0.06 0.63,0.03 0.93,-0.09 0.3,-0.13 0.55,-0.33 0.72,-0.59 0.17,-0.26 0.27,-0.57 0.27,-0.9l0 -15.56 10.2 0c1.92,0 3.66,-0.78 4.92,-2.04 1.26,-1.26 2.04,-3 2.05,-4.93l-0.01 -53.64c0,-1.92 -0.78,-3.67 -2.04,-4.93 -1.26,-1.26 -3,-2.04 -4.92,-2.04zm-17.7 -1.09l17.7 0c2.22,0.01 4.23,0.91 5.69,2.37 1.45,1.45 2.35,3.46 2.36,5.69l0 53.64c-0.01,2.23 -0.91,4.24 -2.36,5.69 -1.46,1.46 -3.47,2.36 -5.69,2.36l-9.12 0.01 0 14.47c0,0.55 -0.16,1.06 -0.45,1.5 -0.29,0.43 -0.71,0.78 -1.21,0.99 -0.5,0.21 -1.04,0.25 -1.55,0.15 -0.51,-0.1 -0.99,-0.35 -1.38,-0.73l-16.38 -16.38 -62.19 0c-2.22,-0.01 -4.23,-0.91 -5.69,-2.36 -1.45,-1.46 -2.35,-3.47 -2.36,-5.7l0 -18.19 -3.99 4c-0.39,0.38 -0.87,0.64 -1.38,0.74 -0.51,0.1 -1.05,0.05 -1.55,-0.16 -0.5,-0.2 -0.92,-0.56 -1.21,-0.99 -0.29,-0.43 -0.45,-0.95 -0.45,-1.49l0 -14.48 -9.12 0c-2.22,0 -4.23,-0.9 -5.69,-2.36 -1.45,-1.46 -2.35,-3.47 -2.36,-5.69l0 -53.65c0.01,-2.22 0.91,-4.23 2.36,-5.69 1.46,-1.45 3.47,-2.36 5.69,-2.36l92.28 0c2.22,0 4.23,0.91 5.69,2.36 1.45,1.46 2.35,3.47 2.36,5.69l0 30.57zm-86.92 40.43l0 -11.99c0,-0.44 -0.18,-0.84 -0.47,-1.13 -0.29,-0.29 -0.69,-0.47 -1.13,-0.47l-11.81 0c-1.03,0 -1.97,-0.42 -2.65,-1.1 -0.68,-0.68 -1.1,-1.62 -1.11,-2.66l0 -53.65c0.01,-1.03 0.43,-1.98 1.11,-2.65 0.67,-0.69 1.62,-1.11 2.65,-1.11l92.28 0c1.03,0 1.97,0.42 2.65,1.1 0.68,0.68 1.1,1.63 1.1,2.66l0.01 53.65c-0.01,1.04 -0.43,1.98 -1.11,2.66 -0.67,0.68 -1.62,1.1 -2.65,1.1l-63.31 0c-0.21,0 -0.42,0.04 -0.61,0.12 -0.2,0.08 -0.37,0.2 -0.52,0.35l-14.43 14.43 0 -1.31zm1.08 -11.99l0 10.68 12.58 -12.58c0.25,-0.25 0.55,-0.45 0.88,-0.58 0.32,-0.13 0.67,-0.21 1.02,-0.21l63.31 0c0.73,0.01 1.4,-0.29 1.89,-0.78 0.48,-0.48 0.78,-1.15 0.78,-1.89l0 -53.65c0,-0.74 -0.3,-1.41 -0.78,-1.89 -0.49,-0.49 -1.16,-0.79 -1.89,-0.79l-92.28 0.01c-0.73,-0.01 -1.4,0.29 -1.89,0.78 -0.49,0.48 -0.79,1.15 -0.79,1.89l0.01 53.65c-0.01,0.73 0.3,1.41 0.78,1.89 0.49,0.49 1.16,0.79 1.89,0.79l11.81 -0.01c0.74,0 1.41,0.31 1.89,0.79 0.49,0.49 0.79,1.16 0.79,1.9zm107.3 33.26c-0.01,1.04 -0.43,1.98 -1.11,2.66 -0.68,0.68 -1.62,1.1 -2.65,1.1l-11.81 0c-0.44,0 -0.84,0.18 -1.13,0.47 -0.29,0.29 -0.47,0.69 -0.47,1.14l0 13.29 -14.43 -14.43c-0.15,-0.15 -0.33,-0.27 -0.52,-0.34 -0.19,-0.08 -0.4,-0.13 -0.61,-0.13l-63.31 0c-1.03,0 -1.98,-0.42 -2.65,-1.1 -0.68,-0.68 -1.1,-1.62 -1.11,-2.66l0 -24.01 7.65 -7.64 62.64 0c1.92,0 3.66,-0.78 4.92,-2.05 1.26,-1.26 2.04,-3 2.05,-4.92l-0.01 -18.78 18.79 0c1.03,0 1.97,0.42 2.65,1.1 0.68,0.68 1.1,1.62 1.1,2.66l0.01 53.64zm-1.87 1.9c0.48,-0.49 0.78,-1.16 0.78,-1.9l0 -53.64c0,-0.74 -0.3,-1.41 -0.78,-1.89 -0.49,-0.49 -1.16,-0.79 -1.89,-0.79l-17.7 0 0 17.7c-0.01,2.22 -0.91,4.23 -2.36,5.69 -1.46,1.46 -3.47,2.36 -5.69,2.36l-62.2 0 -7 7.01 0 23.56c-0.01,0.74 0.29,1.41 0.78,1.9 0.49,0.48 1.16,0.78 1.89,0.78l63.31 0c0.35,0 0.7,0.07 1.02,0.21 0.33,0.13 0.62,0.33 0.88,0.58l12.57 12.58 0 -10.68c0,-0.74 0.31,-1.41 0.79,-1.9 0.49,-0.49 1.16,-0.79 1.9,-0.79l11.81 0c0.73,0 1.4,-0.3 1.89,-0.78z"/>
   <path class="fil0" d="M54.19 43.46c3.47,0 6.6,-2.09 7.93,-5.3 1.33,-3.21 0.59,-6.9 -1.86,-9.35 -2.46,-2.46 -6.15,-3.19 -9.36,-1.86 -3.2,1.32 -5.29,4.45 -5.29,7.92 0,4.74 3.84,8.58 8.58,8.59zm0 -12.88c1.74,0 3.3,1.05 3.96,2.65 0.67,1.61 0.3,3.45 -0.93,4.68 -1.22,1.23 -3.07,1.59 -4.67,0.93 -1.61,-0.66 -2.65,-2.23 -2.65,-3.97 0,-2.36 1.92,-4.28 4.29,-4.29z"/>
   <path class="fil0" d="M54.19 42.92c1.63,0 3.17,-0.49 4.47,-1.36 1.29,-0.86 2.34,-2.1 2.96,-3.61 0.62,-1.5 0.76,-3.12 0.46,-4.65 -0.31,-1.52 -1.05,-2.96 -2.2,-4.11 -1.15,-1.15 -2.59,-1.9 -4.12,-2.2 -1.53,-0.31 -3.15,-0.17 -4.65,0.46 -1.5,0.62 -2.74,1.66 -3.61,2.96 -0.86,1.29 -1.35,2.84 -1.35,4.46 0,2.22 0.9,4.23 2.36,5.69 1.45,1.45 3.46,2.36 5.68,2.36zm5.07 -0.46c-1.47,0.98 -3.23,1.54 -5.07,1.54 -2.52,0 -4.8,-1.03 -6.45,-2.67 -1.65,-1.65 -2.67,-3.94 -2.67,-6.46 -0.01,-1.84 0.55,-3.59 1.53,-5.06 0.98,-1.47 2.39,-2.66 4.1,-3.36 1.7,-0.71 3.54,-0.87 5.27,-0.52 1.73,0.34 3.36,1.19 4.67,2.49 1.31,1.31 2.15,2.94 2.5,4.68 0.34,1.73 0.19,3.56 -0.52,5.27 -0.71,1.7 -1.89,3.11 -3.36,4.09zm-5.07 -12.42c0.97,0 1.91,0.3 2.68,0.82 0.78,0.52 1.41,1.26 1.78,2.17 0.38,0.9 0.46,1.87 0.28,2.79 -0.18,0.91 -0.63,1.78 -1.32,2.47 -0.7,0.69 -1.56,1.14 -2.48,1.33 -0.92,0.18 -1.89,0.09 -2.79,-0.28 -0.9,-0.37 -1.65,-1 -2.17,-1.78 -0.52,-0.78 -0.81,-1.71 -0.81,-2.69 0,-1.33 0.54,-2.54 1.41,-3.41 0.87,-0.87 2.08,-1.41 3.42,-1.42zm2.08 1.72c-0.6,-0.41 -1.32,-0.63 -2.08,-0.63 -1.03,-0.01 -1.97,0.42 -2.65,1.1 -0.68,0.67 -1.1,1.61 -1.1,2.64 0,0.77 0.23,1.49 0.63,2.09 0.4,0.6 0.98,1.09 1.68,1.38 0.7,0.29 1.46,0.35 2.17,0.21 0.71,-0.14 1.39,-0.49 1.92,-1.02 0.54,-0.54 0.89,-1.21 1.03,-1.92 0.14,-0.72 0.07,-1.47 -0.22,-2.17 -0.29,-0.7 -0.77,-1.28 -1.38,-1.68z"/>
   <path class="fil0" d="M28.44 43.46c3.47,0 6.6,-2.09 7.93,-5.3 1.33,-3.21 0.59,-6.9 -1.86,-9.35 -2.46,-2.46 -6.15,-3.19 -9.36,-1.86 -3.2,1.32 -5.29,4.45 -5.29,7.92 0,4.74 3.84,8.58 8.58,8.59zm0 -12.88c1.74,0 3.3,1.05 3.96,2.65 0.67,1.61 0.3,3.45 -0.93,4.68 -1.22,1.23 -3.07,1.59 -4.67,0.93 -1.61,-0.66 -2.65,-2.23 -2.65,-3.97 0,-2.36 1.92,-4.28 4.29,-4.29z"/>
   <path class="fil0" d="M28.44 42.92c1.63,0 3.17,-0.49 4.47,-1.36 1.29,-0.86 2.34,-2.1 2.96,-3.61 0.62,-1.5 0.76,-3.12 0.46,-4.65 -0.31,-1.52 -1.05,-2.96 -2.2,-4.11 -1.15,-1.15 -2.59,-1.9 -4.12,-2.2 -1.53,-0.31 -3.15,-0.17 -4.65,0.46 -1.5,0.62 -2.74,1.66 -3.61,2.96 -0.86,1.29 -1.35,2.84 -1.35,4.46 0,2.22 0.9,4.23 2.36,5.69 1.45,1.45 3.46,2.36 5.68,2.36zm5.07 -0.46c-1.47,0.98 -3.23,1.54 -5.07,1.54 -2.52,0 -4.8,-1.03 -6.45,-2.67 -1.65,-1.65 -2.67,-3.94 -2.67,-6.46 -0.01,-1.84 0.55,-3.59 1.53,-5.06 0.98,-1.47 2.39,-2.66 4.1,-3.36 1.7,-0.71 3.54,-0.87 5.27,-0.52 1.73,0.34 3.36,1.19 4.67,2.49 1.31,1.31 2.15,2.94 2.5,4.68 0.34,1.73 0.18,3.56 -0.52,5.27 -0.71,1.7 -1.89,3.11 -3.36,4.09zm-5.07 -12.42c0.97,0 1.91,0.3 2.68,0.82 0.78,0.52 1.41,1.26 1.78,2.17 0.38,0.9 0.46,1.87 0.28,2.79 -0.18,0.91 -0.63,1.78 -1.32,2.47 -0.7,0.69 -1.56,1.14 -2.48,1.33 -0.92,0.18 -1.89,0.09 -2.79,-0.28 -0.9,-0.37 -1.65,-1 -2.17,-1.78 -0.52,-0.78 -0.81,-1.71 -0.81,-2.69 0,-1.33 0.54,-2.54 1.41,-3.41 0.87,-0.87 2.08,-1.41 3.42,-1.42zm2.08 1.72c-0.6,-0.41 -1.32,-0.63 -2.08,-0.63 -1.03,-0.01 -1.97,0.42 -2.65,1.1 -0.68,0.67 -1.1,1.61 -1.1,2.64 0,0.77 0.23,1.49 0.63,2.09 0.4,0.6 0.98,1.09 1.68,1.38 0.7,0.29 1.46,0.36 2.17,0.21 0.71,-0.14 1.39,-0.49 1.92,-1.02 0.54,-0.54 0.89,-1.21 1.03,-1.92 0.14,-0.72 0.07,-1.47 -0.22,-2.17 -0.29,-0.7 -0.77,-1.28 -1.38,-1.68z"/>
   <path class="fil0" d="M79.94 43.46c3.47,0 6.6,-2.09 7.93,-5.3 1.33,-3.21 0.59,-6.9 -1.86,-9.35 -2.46,-2.46 -6.15,-3.19 -9.35,-1.86 -3.21,1.32 -5.3,4.45 -5.3,7.92 0,4.74 3.84,8.58 8.58,8.59zm0 -12.88c1.74,0 3.3,1.05 3.96,2.65 0.67,1.61 0.3,3.45 -0.93,4.68 -1.22,1.23 -3.07,1.59 -4.67,0.93 -1.61,-0.66 -2.65,-2.23 -2.65,-3.97 0,-2.36 1.92,-4.28 4.29,-4.29z"/>
   <path class="fil0" d="M79.94 42.92c1.63,0 3.17,-0.49 4.47,-1.36 1.29,-0.86 2.34,-2.1 2.96,-3.61 0.62,-1.5 0.76,-3.12 0.46,-4.65 -0.31,-1.52 -1.05,-2.96 -2.2,-4.11 -1.15,-1.15 -2.59,-1.9 -4.12,-2.2 -1.53,-0.31 -3.15,-0.17 -4.65,0.46 -1.5,0.62 -2.74,1.66 -3.61,2.96 -0.86,1.29 -1.35,2.84 -1.35,4.46 0,2.22 0.9,4.23 2.36,5.69 1.45,1.45 3.46,2.36 5.68,2.36zm5.07 -0.46c-1.47,0.98 -3.23,1.54 -5.07,1.54 -2.52,0 -4.8,-1.03 -6.45,-2.68 -1.65,-1.65 -2.67,-3.93 -2.67,-6.45 -0.01,-1.84 0.55,-3.59 1.53,-5.06 0.98,-1.47 2.39,-2.66 4.1,-3.36 1.7,-0.71 3.54,-0.87 5.27,-0.52 1.73,0.34 3.37,1.19 4.67,2.49 1.31,1.31 2.15,2.94 2.5,4.68 0.34,1.73 0.19,3.56 -0.52,5.27 -0.71,1.7 -1.89,3.11 -3.36,4.09zm-5.07 -12.42c0.98,0 1.91,0.3 2.69,0.82 0.77,0.52 1.4,1.26 1.77,2.17 0.38,0.9 0.46,1.87 0.28,2.79 -0.18,0.91 -0.63,1.78 -1.32,2.47 -0.7,0.69 -1.56,1.14 -2.48,1.33 -0.92,0.18 -1.89,0.09 -2.79,-0.28 -0.9,-0.37 -1.65,-1 -2.17,-1.78 -0.52,-0.78 -0.81,-1.71 -0.81,-2.69 0,-1.33 0.54,-2.54 1.41,-3.41 0.88,-0.87 2.08,-1.41 3.42,-1.42zm2.08 1.72c-0.6,-0.41 -1.32,-0.63 -2.08,-0.63 -1.03,-0.01 -1.97,0.42 -2.65,1.1 -0.68,0.67 -1.1,1.61 -1.1,2.64 0,0.77 0.23,1.49 0.63,2.09 0.4,0.6 0.98,1.09 1.68,1.38 0.7,0.29 1.46,0.35 2.17,0.21 0.72,-0.14 1.39,-0.49 1.92,-1.02 0.54,-0.54 0.89,-1.21 1.03,-1.92 0.14,-0.72 0.07,-1.47 -0.22,-2.17 -0.29,-0.7 -0.77,-1.28 -1.38,-1.68z"/>
  </g>
 </g>
</svg>
