<?xml version="1.0" encoding="UTF-8"?>
<!DOCTYPE svg PUBLIC "-//W3C//DTD SVG 1.1//EN" "http://www.w3.org/Graphics/SVG/1.1/DTD/svg11.dtd">
<!-- Creator: CorelDRAW 2018 (64-Bit) -->
<svg xmlns="http://www.w3.org/2000/svg" xml:space="preserve" width="165px" height="207px" version="1.1" style="shape-rendering:geometricPrecision; text-rendering:geometricPrecision; image-rendering:optimizeQuality; fill-rule:evenodd; clip-rule:evenodd"
viewBox="0 0 36.4 45.46"
 xmlns:xlink="http://www.w3.org/1999/xlink">
 <defs>
  <style type="text/css">
   <![CDATA[
    .fil0 {fill:#00B800;fill-rule:nonzero}
   ]]>
  </style>
 </defs>
 <g id="Layer_x0020_1">
  <metadata id="CorelCorpID_0Corel-Layer"/>
  <g id="_2200252424608">
   <path class="fil0" d="M24.73 7.95l-21.14 0c-1.98,0 -3.59,1.61 -3.59,3.59l0 30.33c0,1.98 1.61,3.59 3.59,3.59l21.14 0c1.98,0 3.59,-1.61 3.59,-3.59l0 -30.33c-0.01,-1.98 -1.62,-3.59 -3.59,-3.59zm1.07 33.91c0,0.59 -0.49,1.08 -1.08,1.08l-21.14 0c-0.59,0 -1.08,-0.49 -1.08,-1.08l0 -30.32c0,-0.59 0.49,-1.08 1.08,-1.08l21.14 0c0.59,0 1.08,0.49 1.08,1.08l0 30.32z"/>
   <path class="fil0" d="M32.81 0l-21.14 0c-1.98,0 -3.59,1.61 -3.59,3.59 0,0.7 0.56,1.26 1.26,1.26 0.7,0 1.25,-0.56 1.25,-1.26 0,-0.59 0.49,-1.08 1.08,-1.08l21.14 0c0.59,0 1.08,0.49 1.08,1.08l0 30.33c0,0.59 -0.49,1.08 -1.08,1.08 -0.7,0 -1.26,0.55 -1.26,1.25 0,0.7 0.56,1.26 1.26,1.26 1.98,0 3.59,-1.61 3.59,-3.59l0 -30.33c0,-1.98 -1.61,-3.59 -3.59,-3.59z"/>
  </g>
 </g>
</svg>
