<?xml version="1.0" encoding="UTF-8"?>
<!DOCTYPE svg PUBLIC "-//W3C//DTD SVG 1.1//EN" "http://www.w3.org/Graphics/SVG/1.1/DTD/svg11.dtd">
<!-- Creator: CorelDRAW 2018 (64-Bit) -->
<svg xmlns="http://www.w3.org/2000/svg" xml:space="preserve" width="244px" height="244px" version="1.1" style="shape-rendering:geometricPrecision; text-rendering:geometricPrecision; image-rendering:optimizeQuality; fill-rule:evenodd; clip-rule:evenodd"
viewBox="0 0 29.83 29.83"
 xmlns:xlink="http://www.w3.org/1999/xlink">
 <defs>
  <style type="text/css">
   <![CDATA[
    .fil0 {fill:#00B800;fill-rule:nonzero}
   ]]>
  </style>
 </defs>
 <g id="Layer_x0020_1">
  <metadata id="CorelCorpID_0Corel-Layer"/>
  <path class="fil0" d="M14.92 0c-8.23,0 -14.92,6.69 -14.92,14.92 0,8.22 6.69,14.91 14.92,14.91 8.22,0 14.91,-6.69 14.91,-14.91 0,-8.23 -6.69,-14.92 -14.91,-14.92zm6.56 16.02l-3.98 4.68c-0.34,0.4 -0.82,0.6 -1.3,0.6 -0.39,0 -0.78,-0.13 -1.1,-0.4 -0.71,-0.61 -0.8,-1.69 -0.19,-2.4l1.6 -1.88 -6.86 0c-0.94,0 -1.7,-0.76 -1.7,-1.7 0,-0.94 0.76,-1.7 1.7,-1.7l6.86 0 -1.6 -1.88c-0.61,-0.72 -0.52,-1.79 0.19,-2.4 0.72,-0.61 1.79,-0.52 2.4,0.19l3.98 4.69c0.54,0.63 0.54,1.56 0,2.2z"/>
 </g>
</svg>
