<?xml version="1.0" encoding="UTF-8"?>
<!DOCTYPE svg PUBLIC "-//W3C//DTD SVG 1.1//EN" "http://www.w3.org/Graphics/SVG/1.1/DTD/svg11.dtd">
<!-- Creator: CorelDRAW 2018 (64-Bit) -->
<svg xmlns="http://www.w3.org/2000/svg" xml:space="preserve" width="207px" height="207px" version="1.1" style="shape-rendering:geometricPrecision; text-rendering:geometricPrecision; image-rendering:optimizeQuality; fill-rule:evenodd; clip-rule:evenodd"
viewBox="0 0 113.2 113.2"
 xmlns:xlink="http://www.w3.org/1999/xlink">
 <defs>
  <style type="text/css">
   <![CDATA[
    .fil0 {fill:#00B800;fill-rule:nonzero}
   ]]>
  </style>
 </defs>
 <g id="Layer_x0020_1">
  <metadata id="CorelCorpID_0Corel-Layer"/>
  <g id="_2200241650400">
   <path class="fil0" d="M73.49 30.98c-0.45,-0.45 -1.04,-0.68 -1.63,-0.68 -0.6,0 -1.19,0.23 -1.64,0.68 -0.43,0.43 -0.68,1.02 -0.68,1.63l0 6.94 -16.18 0c-1.28,0 -2.31,1.04 -2.31,2.31 0,1.28 1.03,2.31 2.31,2.31l18.5 0c1.27,0 2.31,-1.03 2.31,-2.31l0 -3.66 10.6 10.6 -10.6 10.6 0 -3.67c0,-1.27 -1.04,-2.31 -2.31,-2.31l-25.43 0 0 -6.93c0,-1.28 -1.04,-2.32 -2.32,-2.32 -0.61,0 -1.2,0.25 -1.63,0.68l-16.18 16.18c-0.46,0.46 -0.68,1.05 -0.68,1.64 0,0.59 0.22,1.18 0.68,1.63l16.18 16.19c0.43,0.43 1.02,0.67 1.63,0.67l0.02 0c0.3,0 0.59,-0.06 0.87,-0.17 0.86,-0.36 1.43,-1.2 1.43,-2.14l0 -6.93 16.18 0c1.28,0 2.31,-1.04 2.31,-2.31 0,-1.28 -1.03,-2.32 -2.31,-2.32l-18.5 0c-1.27,0 -2.31,1.04 -2.31,2.32l0 3.66 -10.6 -10.6 10.6 -10.6 0 3.66c0,1.28 1.04,2.32 2.31,2.32l25.43 0 0 6.93c0,1.28 1.04,2.31 2.32,2.31 0.61,0 1.2,-0.24 1.63,-0.67l16.18 -16.19c0.45,-0.45 0.68,-1.03 0.68,-1.62l0 -0.02c0,-0.59 -0.23,-1.18 -0.68,-1.63l-16.18 -16.18z"/>
   <path class="fil0" d="M4.31 46.15l41.83 -41.84c2.87,-2.87 6.67,-4.31 10.46,-4.31 3.78,0 7.58,1.44 10.45,4.31l41.83 41.84c2.87,2.88 4.32,6.67 4.32,10.45 0,3.78 -1.44,7.56 -4.31,10.44l-41.84 41.84c-2.87,2.87 -6.67,4.32 -10.45,4.32 -3.79,0 -7.59,-1.45 -10.46,-4.32l-41.83 -41.83c-2.87,-2.87 -4.31,-6.67 -4.31,-10.45 0,-3.79 1.44,-7.58 4.31,-10.45zm44.36 -39.32l-41.84 41.84c-2.18,2.18 -3.27,5.05 -3.27,7.93 0,2.87 1.09,5.75 3.27,7.93l41.84 41.83c2.17,2.18 5.06,3.28 7.93,3.28 2.87,0 5.75,-1.1 7.93,-3.28l41.83 -41.83c2.18,-2.18 3.28,-5.06 3.28,-7.93 0,-2.88 -1.1,-5.75 -3.27,-7.93l-41.84 -41.84c-2.18,-2.18 -5.06,-3.27 -7.93,-3.27 -2.87,0 -5.76,1.09 -7.93,3.27z"/>
  </g>
 </g>
</svg>
