<?xml version="1.0" encoding="UTF-8"?>
<!DOCTYPE svg PUBLIC "-//W3C//DTD SVG 1.1//EN" "http://www.w3.org/Graphics/SVG/1.1/DTD/svg11.dtd">
<!-- Creator: CorelDRAW 2018 (64-Bit) -->
<svg xmlns="http://www.w3.org/2000/svg" xml:space="preserve" width="201px" height="207px" version="1.1" style="shape-rendering:geometricPrecision; text-rendering:geometricPrecision; image-rendering:optimizeQuality; fill-rule:evenodd; clip-rule:evenodd"
viewBox="0 0 51.41 52.88"
 xmlns:xlink="http://www.w3.org/1999/xlink">
 <defs>
  <style type="text/css">
   <![CDATA[
    .fil0 {fill:black;fill-rule:nonzero}
   ]]>
  </style>
 </defs>
 <g id="Layer_x0020_1">
  <metadata id="CorelCorpID_0Corel-Layer"/>
  <path class="fil0" d="M49.86 35.95c1.09,-1.38 1.61,-2.86 1.54,-4.39 -0.06,-1.68 -0.82,-3 -1.44,-3.8 0.72,-1.79 1,-4.61 -1.4,-6.8 -1.76,-1.61 -4.74,-2.33 -8.88,-2.13 -2.91,0.14 -5.34,0.68 -5.44,0.7l-0.01 0c-0.56,0.1 -1.14,0.22 -1.74,0.35 -0.04,-0.7 0.08,-2.46 1.38,-6.42 1.55,-4.71 1.46,-8.32 -0.28,-10.73 -1.84,-2.53 -4.77,-2.73 -5.63,-2.73 -0.83,0 -1.6,0.34 -2.14,0.97 -1.22,1.43 -1.08,4.06 -0.93,5.28 -1.46,3.91 -5.55,13.51 -9.01,16.18 -0.07,0.04 -0.12,0.1 -0.18,0.15 -1.01,1.07 -1.7,2.24 -2.16,3.25 -0.66,-0.35 -1.4,-0.55 -2.19,-0.55l-6.75 0c-2.54,0 -4.6,2.07 -4.6,4.6l0 17.97c0,2.54 2.07,4.6 4.6,4.6l6.75 0c0.98,0 1.9,-0.31 2.65,-0.84l2.6 0.31c0.4,0.06 7.48,0.95 14.74,0.81 1.32,0.1 2.56,0.15 3.71,0.15 1.98,0 3.7,-0.15 5.14,-0.46 3.38,-0.72 5.69,-2.16 6.87,-4.27 0.89,-1.61 0.89,-3.22 0.75,-4.24 2.2,-1.99 2.59,-4.19 2.51,-5.74 -0.05,-0.89 -0.25,-1.65 -0.46,-2.22zm-45.26 13.52c-0.89,0 -1.61,-0.73 -1.61,-1.62l0 -17.98c0,-0.9 0.73,-1.62 1.61,-1.62l6.75 0c0.89,0 1.61,0.74 1.61,1.62l0 17.97c0,0.9 -0.73,1.62 -1.61,1.62l-6.75 0 0 0.01zm42.43 -14.81c-0.46,0.48 -0.55,1.23 -0.2,1.8 0,0.01 0.46,0.79 0.51,1.85 0.08,1.45 -0.62,2.73 -2.08,3.82 -0.52,0.4 -0.73,1.09 -0.5,1.71 0,0.01 0.47,1.47 -0.3,2.85 -0.74,1.33 -2.39,2.28 -4.89,2.81 -2,0.43 -4.72,0.51 -8.06,0.24l-0.16 0c-7.11,0.16 -14.3,-0.77 -14.37,-0.78l-0.02 0 -1.11 -0.14c0.06,-0.3 0.1,-0.64 0.1,-0.97l0 -17.98c0,-0.48 -0.08,-0.94 -0.21,-1.37 0.2,-0.74 0.75,-2.39 2.05,-3.79 4.97,-3.94 9.82,-17.22 10.03,-17.8 0.09,-0.23 0.11,-0.49 0.07,-0.74 -0.19,-1.24 -0.12,-2.75 0.14,-3.21 0.59,0.01 2.17,0.18 3.12,1.5 1.13,1.56 1.09,4.34 -0.13,8.04 -1.86,5.63 -2.01,8.59 -0.54,9.89 0.73,0.66 1.7,0.69 2.41,0.44 0.67,-0.16 1.32,-0.29 1.92,-0.39 0.05,-0.01 0.1,-0.02 0.15,-0.04 3.39,-0.74 9.47,-1.19 11.59,0.73 1.79,1.64 0.52,3.81 0.37,4.04 -0.41,0.62 -0.28,1.43 0.27,1.93 0.01,0.01 1.17,1.1 1.23,2.57 0.04,0.99 -0.42,1.99 -1.39,2.99z"/>
 </g>
</svg>
