<?xml version="1.0" encoding="UTF-8"?>
<!DOCTYPE svg PUBLIC "-//W3C//DTD SVG 1.1//EN" "http://www.w3.org/Graphics/SVG/1.1/DTD/svg11.dtd">
<!-- Creator: CorelDRAW 2018 (64-Bit) -->
<svg xmlns="http://www.w3.org/2000/svg" xml:space="preserve" width="205px" height="244px" version="1.1" style="shape-rendering:geometricPrecision; text-rendering:geometricPrecision; image-rendering:optimizeQuality; fill-rule:evenodd; clip-rule:evenodd"
viewBox="0 0 27.08 32.33"
 xmlns:xlink="http://www.w3.org/1999/xlink">
 <defs>
  <style type="text/css">
   <![CDATA[
    .fil2 {fill:#D38231;fill-rule:nonzero}
    .fil0 {fill:#D8D6D4;fill-rule:nonzero}
    .fil1 {fill:#E88C38;fill-rule:nonzero}
    .fil6 {fill:black;fill-rule:nonzero}
    .fil5 {fill:#DADADA;fill-rule:nonzero}
    .fil4 {fill:#ECECEC;fill-rule:nonzero}
    .fil3 {fill:white;fill-rule:nonzero}
   ]]>
  </style>
 </defs>
 <g id="Layer_x0020_1">
  <metadata id="CorelCorpID_0Corel-Layer"/>
  <g id="_2200341128832">
   <path class="fil0" d="M3.56 4.59l-2.07 0c-0.56,0 -1.01,-0.45 -1.01,-1.01 0,-0.56 0.45,-1.01 1.01,-1.01l2.07 0c0.56,0 1.01,0.45 1.01,1.01 0,0.56 -0.45,1.01 -1.01,1.01z"/>
   <path class="fil0" d="M3.56 9.63l-2.07 0c-0.56,0 -1.01,-0.46 -1.01,-1.02 0,-0.56 0.45,-1.01 1.01,-1.01l2.07 0c0.56,0 1.01,0.45 1.01,1.01 0,0.56 -0.45,1.02 -1.01,1.02z"/>
   <path class="fil0" d="M3.56 14.66l-2.07 0c-0.56,0 -1.01,-0.45 -1.01,-1.01 0,-0.56 0.45,-1.02 1.01,-1.02l2.07 0c0.56,0 1.01,0.46 1.01,1.02 0,0.56 -0.45,1.01 -1.01,1.01z"/>
   <path class="fil0" d="M3.56 19.7l-2.07 0c-0.56,0 -1.01,-0.46 -1.01,-1.02 0,-0.56 0.45,-1.01 1.01,-1.01l2.07 0c0.56,0 1.01,0.45 1.01,1.01 0,0.56 -0.45,1.02 -1.01,1.02z"/>
   <path class="fil0" d="M3.56 24.73l-2.07 0c-0.56,0 -1.01,-0.45 -1.01,-1.01 0,-0.56 0.45,-1.02 1.01,-1.02l2.07 0c0.56,0 1.01,0.46 1.01,1.02 0,0.56 -0.45,1.01 -1.01,1.01z"/>
   <path class="fil0" d="M3.56 29.76l-2.07 0c-0.56,0 -1.01,-0.45 -1.01,-1.01 0,-0.56 0.45,-1.01 1.01,-1.01l2.07 0c0.56,0 1.01,0.45 1.01,1.01 0,0.56 -0.45,1.01 -1.01,1.01z"/>
   <path class="fil1" d="M25.86 31.85l-22.7 0c-0.41,0 -0.74,-0.33 -0.74,-0.74l0 -29.89c0,-0.41 0.33,-0.74 0.74,-0.74l22.7 0c0.41,0 0.74,0.33 0.74,0.74l0 29.89c0,0.41 -0.33,0.74 -0.74,0.74z"/>
   <path class="fil2" d="M25.86 0.48l-2.95 0 0 31.37 2.95 0c0.41,0 0.74,-0.33 0.74,-0.74l0 -29.89c0,-0.41 -0.33,-0.74 -0.74,-0.74z"/>
   <path class="fil3" d="M15.39 7.48l-1.76 0 -0.18 -1.68c-0.03,-0.33 0.22,-0.61 0.55,-0.61l1.02 0c0.32,0 0.58,0.28 0.54,0.61l-0.17 1.68z"/>
   <path class="fil4" d="M21.23 14.36l-13.45 0 0 -0.57c0,-3.71 3.01,-6.72 6.73,-6.72 3.71,0 6.72,3.01 6.72,6.72l0 0.57z"/>
   <path class="fil5" d="M14.51 7.07c-0.64,0 -1.26,0.09 -1.84,0.25 2.81,0.8 4.88,3.4 4.88,6.47l0 0.57 3.68 0 0 -0.57c0,-3.71 -3.01,-6.72 -6.72,-6.72z"/>
   <path class="fil0" d="M22.17 13.87l-15.32 0c-0.15,0 -0.27,0.12 -0.27,0.27l0 0.99c0,0.15 0.12,0.27 0.27,0.27l15.32 0c0.14,0 0.26,-0.12 0.26,-0.27l0 -0.99c0,-0.15 -0.12,-0.27 -0.26,-0.27z"/>
   <path class="fil6" d="M8.57 24.04c-0.06,0.11 -0.16,0.15 -0.25,0.15 -0.09,0 -0.18,-0.04 -0.24,-0.15l-0.66 -1.23 0 2.49c0,0.15 -0.18,0.23 -0.36,0.23 -0.19,0 -0.37,-0.08 -0.37,-0.23l0 -3.55c0,-0.27 0.18,-0.37 0.37,-0.37 0.26,0 0.38,0.06 0.57,0.39l0.7 1.28 0.7 -1.28c0.18,-0.33 0.31,-0.39 0.57,-0.39 0.19,0 0.37,0.1 0.37,0.37l0 3.55c0,0.15 -0.18,0.23 -0.37,0.23 -0.18,0 -0.36,-0.08 -0.36,-0.23l0 -2.44 -0.67 1.18z"/>
   <path class="fil6" d="M12.03 23.17l0.86 0c0.15,0 0.23,0.14 0.23,0.29 0,0.13 -0.07,0.28 -0.23,0.28l-0.86 0 0 1.15 1.6 0c0.15,0 0.24,0.15 0.24,0.32 0,0.16 -0.08,0.32 -0.24,0.32l-2.02 0c-0.16,0 -0.32,-0.08 -0.32,-0.23l0 -3.68c0,-0.16 0.16,-0.24 0.32,-0.24l2.02 0c0.16,0 0.24,0.17 0.24,0.32 0,0.18 -0.09,0.33 -0.24,0.33l-1.6 0 0 1.14z"/>
   <path class="fil6" d="M16.89 25.3l-1.22 -2.28 0 2.28c0,0.15 -0.19,0.23 -0.37,0.23 -0.18,0 -0.37,-0.08 -0.37,-0.23l0 -3.68c0,-0.16 0.19,-0.24 0.37,-0.24 0.27,0 0.38,0.06 0.55,0.39l1.1 2.12 0 -2.28c0,-0.16 0.18,-0.23 0.37,-0.23 0.18,0 0.37,0.07 0.37,0.23l0 3.69c0,0.15 -0.19,0.23 -0.37,0.23 -0.18,0 -0.33,-0.05 -0.43,-0.23z"/>
   <path class="fil6" d="M20.97 21.61c0,-0.16 0.18,-0.23 0.37,-0.23 0.18,0 0.37,0.07 0.37,0.23l0 2.66c0,0.94 -0.6,1.3 -1.36,1.3 -0.77,0 -1.36,-0.36 -1.36,-1.3l0 -2.66c0,-0.16 0.18,-0.23 0.37,-0.23 0.18,0 0.36,0.07 0.36,0.23l0 2.66c0,0.44 0.24,0.65 0.63,0.65 0.39,0 0.62,-0.21 0.62,-0.65l0 -2.66 0 0z"/>
   <path class="fil6" d="M22.43 26.66l-2.7 0c-0.26,0 -0.48,0.21 -0.48,0.48 0,0.26 0.22,0.47 0.48,0.47l2.7 0c0.27,0 0.48,-0.21 0.48,-0.47 0,-0.27 -0.21,-0.48 -0.48,-0.48z"/>
   <path class="fil6" d="M17.5 26.66l-10.92 0c-0.26,0 -0.48,0.21 -0.48,0.48 0,0.26 0.22,0.47 0.48,0.47l10.92 0c0.27,0 0.48,-0.21 0.48,-0.47 0,-0.27 -0.21,-0.48 -0.48,-0.48z"/>
   <path class="fil6" d="M22.43 19.34l-15.85 0c-0.26,0 -0.48,0.21 -0.48,0.48 0,0.26 0.22,0.48 0.48,0.48l15.85 0c0.27,0 0.48,-0.22 0.48,-0.48 0,-0.27 -0.21,-0.48 -0.48,-0.48z"/>
   <path class="fil6" d="M22.17 13.39l-0.47 0c-0.18,-3.3 -2.59,-6.02 -5.75,-6.66l0.09 -0.88c0.03,-0.29 -0.06,-0.58 -0.26,-0.8 -0.19,-0.21 -0.47,-0.34 -0.76,-0.34l-1.02 0c-0.29,0 -0.57,0.13 -0.77,0.34 -0.19,0.22 -0.28,0.51 -0.25,0.8l0.09 0.88c-3.16,0.64 -5.57,3.36 -5.75,6.66l-0.47 0c-0.41,0 -0.75,0.34 -0.75,0.75l0 0.99c0,0.41 0.34,0.75 0.75,0.75l15.32 0c0.41,0 0.74,-0.34 0.74,-0.75l0 -0.99c0,-0.41 -0.33,-0.75 -0.74,-0.75zm-8.22 -7.69c0.01,-0.02 0.03,-0.03 0.05,-0.03l1.02 0c0.02,0 0.04,0.01 0.05,0.03 0.01,0.01 0.02,0.03 0.02,0.05l-0.09 0.85c-0.16,-0.01 -0.33,-0.01 -0.49,-0.01 -0.17,0 -0.33,0 -0.49,0.01l-0.09 -0.85c0,-0.02 0,-0.04 0.02,-0.05zm8 9.22l-14.89 0 0 -0.57 2.02 0c0.27,0 0.48,-0.21 0.48,-0.48 0,-0.26 -0.21,-0.48 -0.48,-0.48l-0.8 0c0.2,-3.26 2.92,-5.84 6.23,-5.84 3.31,0 6.03,2.58 6.23,5.84l-9.43 0c-0.26,0 -0.48,0.22 -0.48,0.48 0,0.27 0.22,0.48 0.48,0.48l10.64 0 0 0.57z"/>
   <path class="fil6" d="M25.86 0l-22.7 0c-0.67,0 -1.22,0.55 -1.22,1.22l0 0.87 -0.45 0c-0.82,0 -1.49,0.67 -1.49,1.49 0,0.82 0.67,1.49 1.49,1.49l0.45 0 0 2.05 -0.45 0c-0.82,0 -1.49,0.67 -1.49,1.49 0,0.83 0.67,1.5 1.49,1.5l0.45 0 0 2.05 -0.45 0c-0.82,0 -1.49,0.66 -1.49,1.49 0,0.82 0.67,1.49 1.49,1.49l0.45 0 0 2.05 -0.45 0c-0.82,0 -1.49,0.67 -1.49,1.49 0,0.82 0.67,1.49 1.49,1.49l0.45 0 0 2.05 -0.45 0c-0.82,0 -1.49,0.67 -1.49,1.5 0,0.82 0.67,1.49 1.49,1.49l0.45 0 0 2.05 -0.45 0c-0.82,0 -1.49,0.67 -1.49,1.49 0,0.82 0.67,1.49 1.49,1.49l0.45 0 0 0.87c0,0.67 0.55,1.22 1.22,1.22l22.7 0c0.67,0 1.22,-0.55 1.22,-1.22l0 -29.89c0,-0.67 -0.55,-1.22 -1.22,-1.22zm-23.92 4.11l-0.45 0c-0.29,0 -0.53,-0.24 -0.53,-0.53 0,-0.3 0.24,-0.54 0.53,-0.54l0.45 0 0 1.07zm0 5.04l-0.45 0c-0.29,0 -0.53,-0.24 -0.53,-0.54 0,-0.29 0.24,-0.53 0.53,-0.53l0.45 0 0 1.07zm0 5.03l-0.45 0c-0.29,0 -0.53,-0.24 -0.53,-0.53 0,-0.3 0.24,-0.54 0.53,-0.54l0.45 0 0 1.07zm0 5.04l-0.45 0c-0.29,0 -0.53,-0.24 -0.53,-0.54 0,-0.29 0.24,-0.53 0.53,-0.53l0.45 0 0 1.07zm0 5.03l-0.45 0c-0.29,0 -0.53,-0.24 -0.53,-0.53 0,-0.3 0.24,-0.54 0.53,-0.54l0.45 0 0 1.07zm0 5.03l-0.45 0c-0.29,0 -0.53,-0.23 -0.53,-0.53 0,-0.29 0.24,-0.53 0.53,-0.53l0.45 0 0 1.06zm24.18 1.83c0,0.14 -0.12,0.26 -0.26,0.26l-22.7 0c-0.14,0 -0.26,-0.12 -0.26,-0.26l0 -29.89c0,-0.14 0.12,-0.26 0.26,-0.26l22.7 0c0.14,0 0.26,0.12 0.26,0.26l0 29.89z"/>
  </g>
 </g>
</svg>
