<?xml version="1.0" encoding="UTF-8"?>
<!DOCTYPE svg PUBLIC "-//W3C//DTD SVG 1.1//EN" "http://www.w3.org/Graphics/SVG/1.1/DTD/svg11.dtd">
<!-- Creator: CorelDRAW 2018 (64-Bit) -->
<svg xmlns="http://www.w3.org/2000/svg" xml:space="preserve" width="201px" height="207px" version="1.1" style="shape-rendering:geometricPrecision; text-rendering:geometricPrecision; image-rendering:optimizeQuality; fill-rule:evenodd; clip-rule:evenodd"
viewBox="0 0 26 26.75"
 xmlns:xlink="http://www.w3.org/1999/xlink">
 <defs>
  <style type="text/css">
   <![CDATA[
    .fil0 {fill:#666666;fill-rule:nonzero}
   ]]>
  </style>
 </defs>
 <g id="Layer_x0020_1">
  <metadata id="CorelCorpID_0Corel-Layer"/>
  <path class="fil0" d="M25.22 8.56c0.55,0.7 0.81,1.45 0.78,2.22 -0.03,0.86 -0.41,1.52 -0.73,1.93 0.37,0.91 0.51,2.33 -0.71,3.44 -0.89,0.81 -2.4,1.17 -4.49,1.07 -1.47,-0.06 -2.7,-0.34 -2.75,-0.35l-0.01 0c-0.28,-0.05 -0.57,-0.11 -0.88,-0.18 -0.02,0.36 0.04,1.25 0.7,3.25 0.79,2.38 0.74,4.21 -0.14,5.43 -0.93,1.28 -2.41,1.38 -2.85,1.38 -0.42,0 -0.8,-0.17 -1.08,-0.49 -0.62,-0.72 -0.55,-2.06 -0.47,-2.67 -0.74,-1.98 -2.81,-6.84 -4.56,-8.18 -0.03,-0.03 -0.06,-0.06 -0.09,-0.08 -0.51,-0.55 -0.86,-1.13 -1.09,-1.65 -0.33,0.18 -0.71,0.28 -1.11,0.28l-3.41 0c-1.29,0 -2.33,-1.04 -2.33,-2.32l0 -9.09c0,-1.29 1.05,-2.33 2.33,-2.33l3.41 0c0.5,0 0.96,0.15 1.34,0.42l1.32 -0.15c0.2,-0.03 3.78,-0.48 7.45,-0.41 0.67,-0.05 1.3,-0.08 1.88,-0.08 1,0 1.87,0.08 2.6,0.23 1.71,0.37 2.88,1.1 3.47,2.16 0.45,0.82 0.45,1.63 0.38,2.15 1.12,1 1.31,2.12 1.27,2.9 -0.02,0.45 -0.12,0.84 -0.23,1.12zm-22.89 -6.83c-0.46,0 -0.82,0.37 -0.82,0.82l0 9.09c0,0.45 0.37,0.82 0.82,0.82l3.41 0c0.45,0 0.82,-0.37 0.82,-0.82l0 -9.09c0,-0.45 -0.37,-0.82 -0.82,-0.82l-3.41 0 0 0zm21.46 7.49c-0.23,-0.25 -0.28,-0.62 -0.1,-0.91 0,-0.01 0.23,-0.4 0.26,-0.94 0.04,-0.73 -0.32,-1.38 -1.05,-1.93 -0.27,-0.2 -0.37,-0.55 -0.26,-0.86 0,-0.01 0.24,-0.75 -0.15,-1.45 -0.38,-0.67 -1.21,-1.15 -2.48,-1.42 -1.01,-0.22 -2.38,-0.26 -4.07,-0.12l-0.08 0c-3.6,-0.08 -7.23,0.39 -7.27,0.4l-0.01 0 -0.56 0.06c0.03,0.16 0.05,0.33 0.05,0.5l0 9.09c0,0.24 -0.04,0.48 -0.11,0.69 0.1,0.38 0.38,1.21 1.04,1.92 2.51,1.99 4.97,8.71 5.07,9 0.05,0.12 0.06,0.25 0.04,0.38 -0.1,0.62 -0.06,1.39 0.07,1.62 0.3,-0.01 1.1,-0.09 1.58,-0.75 0.57,-0.79 0.55,-2.2 -0.07,-4.07 -0.94,-2.85 -1.02,-4.35 -0.27,-5.01 0.37,-0.33 0.86,-0.34 1.22,-0.22 0.34,0.08 0.66,0.15 0.97,0.2 0.02,0.01 0.05,0.01 0.07,0.02 1.72,0.37 4.8,0.6 5.86,-0.37 0.91,-0.83 0.27,-1.93 0.19,-2.04 -0.2,-0.32 -0.14,-0.73 0.14,-0.98 0,0 0.59,-0.56 0.62,-1.3 0.02,-0.5 -0.21,-1.01 -0.7,-1.51z"/>
 </g>
</svg>
