<?xml version="1.0" encoding="UTF-8"?>
<!DOCTYPE svg PUBLIC "-//W3C//DTD SVG 1.1//EN" "http://www.w3.org/Graphics/SVG/1.1/DTD/svg11.dtd">
<!-- Creator: CorelDRAW 2018 (64-Bit) -->
<svg xmlns="http://www.w3.org/2000/svg" xml:space="preserve" width="207px" height="207px" version="1.1" style="shape-rendering:geometricPrecision; text-rendering:geometricPrecision; image-rendering:optimizeQuality; fill-rule:evenodd; clip-rule:evenodd"
viewBox="0 0 54.06 54.06"
 xmlns:xlink="http://www.w3.org/1999/xlink">
 <defs>
  <style type="text/css">
   <![CDATA[
    .fil0 {fill:black;fill-rule:nonzero}
   ]]>
  </style>
 </defs>
 <g id="Layer_x0020_1">
  <metadata id="CorelCorpID_0Corel-Layer"/>
  <path class="fil0" d="M49.73 35.49c-3.31,0 -6.56,-0.52 -9.64,-1.54 -1.51,-0.51 -3.37,-0.04 -4.29,0.91l-6.08 4.58c-7.05,-3.76 -11.39,-8.1 -15.1,-15.1l4.45 -5.92c1.16,-1.15 1.57,-2.84 1.08,-4.43 -1.03,-3.09 -1.54,-6.34 -1.54,-9.65 0,-2.39 -1.95,-4.34 -4.34,-4.34l-9.93 0c-2.39,0 -4.34,1.95 -4.34,4.34 0,27.42 22.31,49.72 49.73,49.72 2.39,0 4.33,-1.94 4.33,-4.33l0 -9.9c0,-2.4 -1.94,-4.34 -4.33,-4.34z"/>
 </g>
</svg>
