<?xml version="1.0" encoding="UTF-8"?>
<!DOCTYPE svg PUBLIC "-//W3C//DTD SVG 1.1//EN" "http://www.w3.org/Graphics/SVG/1.1/DTD/svg11.dtd">
<!-- Creator: CorelDRAW 2018 (64-Bit) -->
<svg xmlns="http://www.w3.org/2000/svg" xml:space="preserve" width="207px" height="207px" version="1.1" style="shape-rendering:geometricPrecision; text-rendering:geometricPrecision; image-rendering:optimizeQuality; fill-rule:evenodd; clip-rule:evenodd"
viewBox="0 0 21.68 21.68"
 xmlns:xlink="http://www.w3.org/1999/xlink">
 <defs>
  <style type="text/css">
   <![CDATA[
    .fil0 {fill:#00B800;fill-rule:nonzero}
   ]]>
  </style>
 </defs>
 <g id="Layer_x0020_1">
  <metadata id="CorelCorpID_0Corel-Layer"/>
  <path class="fil0" d="M19.94 14.23c-1.33,0 -2.63,-0.21 -3.87,-0.62 -0.6,-0.2 -1.35,-0.01 -1.72,0.37l-2.43 1.84c-2.83,-1.51 -4.57,-3.25 -6.06,-6.06l1.79 -2.37c0.46,-0.47 0.63,-1.14 0.43,-1.78 -0.41,-1.24 -0.62,-2.54 -0.62,-3.87 0,-0.96 -0.78,-1.74 -1.74,-1.74l-3.98 0c-0.96,0 -1.74,0.78 -1.74,1.74 0,10.99 8.94,19.94 19.94,19.94 0.96,0 1.74,-0.78 1.74,-1.74l0 -3.97c0,-0.96 -0.78,-1.74 -1.74,-1.74z"/>
 </g>
</svg>
