<?xml version="1.0" encoding="UTF-8"?>
<!DOCTYPE svg PUBLIC "-//W3C//DTD SVG 1.1//EN" "http://www.w3.org/Graphics/SVG/1.1/DTD/svg11.dtd">
<!-- Creator: CorelDRAW 2018 (64-Bit) -->
<svg xmlns="http://www.w3.org/2000/svg" xml:space="preserve" width="201px" height="207px" version="1.1" style="shape-rendering:geometricPrecision; text-rendering:geometricPrecision; image-rendering:optimizeQuality; fill-rule:evenodd; clip-rule:evenodd"
viewBox="0 0 14.83 15.26"
 xmlns:xlink="http://www.w3.org/1999/xlink">
 <defs>
  <style type="text/css">
   <![CDATA[
    .fil0 {fill:#666666;fill-rule:nonzero}
   ]]>
  </style>
 </defs>
 <g id="Layer_x0020_1">
  <metadata id="CorelCorpID_0Corel-Layer"/>
  <path class="fil0" d="M14.39 10.37c0.31,-0.39 0.46,-0.82 0.44,-1.26 -0.02,-0.49 -0.23,-0.87 -0.41,-1.1 0.21,-0.52 0.29,-1.33 -0.41,-1.96 -0.5,-0.47 -1.37,-0.67 -2.56,-0.62 -0.84,0.04 -1.54,0.2 -1.57,0.21l0 0c-0.16,0.02 -0.33,0.06 -0.5,0.1 -0.02,-0.21 0.02,-0.71 0.39,-1.86 0.45,-1.36 0.43,-2.4 -0.08,-3.09 -0.53,-0.73 -1.37,-0.79 -1.62,-0.79 -0.24,0 -0.46,0.1 -0.62,0.28 -0.35,0.41 -0.31,1.17 -0.27,1.52 -0.42,1.13 -1.6,3.9 -2.6,4.67 -0.02,0.01 -0.03,0.03 -0.05,0.05 -0.29,0.31 -0.49,0.64 -0.62,0.93 -0.19,-0.1 -0.41,-0.16 -0.64,-0.16l-1.94 0c-0.74,0 -1.33,0.6 -1.33,1.33l0 5.19c0,0.73 0.6,1.33 1.33,1.33l1.94 0c0.29,0 0.55,-0.09 0.77,-0.25l0.75 0.09c0.11,0.02 2.16,0.28 4.25,0.24 0.38,0.02 0.74,0.04 1.07,0.04 0.57,0 1.07,-0.04 1.49,-0.13 0.97,-0.21 1.64,-0.63 1.98,-1.24 0.26,-0.46 0.26,-0.92 0.22,-1.22 0.63,-0.57 0.74,-1.21 0.72,-1.65 -0.01,-0.26 -0.07,-0.48 -0.13,-0.65zm-13.06 3.9c-0.26,0 -0.47,-0.21 -0.47,-0.46l0 -5.19c0,-0.26 0.21,-0.47 0.47,-0.47l1.94 0c0.26,0 0.47,0.21 0.47,0.47l0 5.18c0,0.26 -0.21,0.47 -0.47,0.47l-1.94 0 0 0zm12.24 -4.27c-0.13,0.14 -0.16,0.36 -0.06,0.52 0,0 0.14,0.23 0.15,0.53 0.02,0.42 -0.18,0.79 -0.6,1.11 -0.15,0.11 -0.21,0.31 -0.15,0.49 0,0 0.14,0.42 -0.08,0.82 -0.22,0.39 -0.69,0.66 -1.41,0.81 -0.58,0.13 -1.36,0.15 -2.33,0.07l-0.04 0c-2.05,0.05 -4.13,-0.22 -4.15,-0.22l0 0 -0.33 -0.04c0.02,-0.09 0.03,-0.19 0.03,-0.28l0 -5.19c0,-0.14 -0.02,-0.27 -0.06,-0.4 0.06,-0.21 0.22,-0.69 0.59,-1.09 1.44,-1.14 2.84,-4.97 2.9,-5.14 0.02,-0.06 0.03,-0.14 0.02,-0.21 -0.06,-0.36 -0.04,-0.79 0.04,-0.92 0.17,0 0.63,0.05 0.9,0.43 0.33,0.45 0.31,1.25 -0.04,2.32 -0.53,1.62 -0.58,2.48 -0.16,2.85 0.22,0.19 0.5,0.2 0.7,0.13 0.2,-0.05 0.38,-0.09 0.56,-0.12 0.01,0 0.02,0 0.04,0 0.98,-0.22 2.73,-0.35 3.34,0.21 0.52,0.47 0.15,1.09 0.11,1.16 -0.12,0.18 -0.08,0.41 0.08,0.56 0,0 0.34,0.32 0.35,0.74 0.01,0.28 -0.12,0.57 -0.4,0.86z"/>
 </g>
</svg>
