<?xml version="1.0" encoding="UTF-8"?>
<!DOCTYPE svg PUBLIC "-//W3C//DTD SVG 1.1//EN" "http://www.w3.org/Graphics/SVG/1.1/DTD/svg11.dtd">
<!-- Creator: CorelDRAW 2018 (64-Bit) -->
<svg xmlns="http://www.w3.org/2000/svg" xml:space="preserve" width="255px" height="244px" version="1.1" style="shape-rendering:geometricPrecision; text-rendering:geometricPrecision; image-rendering:optimizeQuality; fill-rule:evenodd; clip-rule:evenodd"
viewBox="0 0 77.43 74.21"
 xmlns:xlink="http://www.w3.org/1999/xlink">
 <defs>
  <style type="text/css">
   <![CDATA[
    .fil0 {fill:black;fill-rule:nonzero}
   ]]>
  </style>
 </defs>
 <g id="Layer_x0020_1">
  <metadata id="CorelCorpID_0Corel-Layer"/>
  <path class="fil0" d="M17.33 74.21c-0.85,0 -1.69,-0.27 -2.41,-0.79 -1.34,-0.97 -1.96,-2.64 -1.6,-4.25l4.98 -21.94 -16.89 -14.82c-1.24,-1.08 -1.72,-2.8 -1.21,-4.37 0.51,-1.57 1.9,-2.68 3.54,-2.83l22.35 -2.03 8.84 -20.68c0.65,-1.52 2.14,-2.5 3.79,-2.5 1.65,0 3.13,0.98 3.78,2.5l8.84 20.68 22.35 2.03c1.64,0.15 3.03,1.26 3.54,2.83 0.51,1.57 0.04,3.29 -1.2,4.37l-16.9 14.82 4.99 21.94c0.36,1.61 -0.27,3.28 -1.6,4.25 -1.34,0.97 -3.12,1.04 -4.53,0.2l-19.27 -11.52 -19.28 11.52c-0.65,0.39 -1.38,0.59 -2.11,0.59zm21.39 -17.07c0.73,0 1.45,0.19 2.11,0.58l18.19 10.88 -4.7 -20.71c-0.34,-1.48 0.16,-3.02 1.3,-4.01l15.95 -13.99 -21.1 -1.92c-1.52,-0.14 -2.83,-1.09 -3.42,-2.49l-8.33 -19.52 -8.34 19.52c-0.59,1.39 -1.9,2.35 -3.41,2.49l-21.11 1.91 15.95 13.99c1.14,1 1.64,2.54 1.3,4.02l-4.69 20.71 18.19 -10.88c0.65,-0.39 1.37,-0.58 2.11,-0.58zm-12.8 -33.56c0,0 0,0.01 0,0.01l0 -0.01zm25.58 -0.01l0.01 0.01c0,0 0,0 -0.01,-0.01z"/>
 </g>
</svg>
