<?xml version="1.0" encoding="UTF-8"?>
<!DOCTYPE svg PUBLIC "-//W3C//DTD SVG 1.1//EN" "http://www.w3.org/Graphics/SVG/1.1/DTD/svg11.dtd">
<!-- Creator: CorelDRAW 2018 (64-Bit) -->
<svg xmlns="http://www.w3.org/2000/svg" xml:space="preserve" width="216px" height="207px" version="1.1" style="shape-rendering:geometricPrecision; text-rendering:geometricPrecision; image-rendering:optimizeQuality; fill-rule:evenodd; clip-rule:evenodd"
viewBox="0 0 14.86 14.22"
 xmlns:xlink="http://www.w3.org/1999/xlink">
 <defs>
  <style type="text/css">
   <![CDATA[
    .fil0 {fill:#FFD000;fill-rule:nonzero}
   ]]>
  </style>
 </defs>
 <g id="Layer_x0020_1">
  <metadata id="CorelCorpID_0Corel-Layer"/>
  <g id="_2200339396960">
   <g>
    <path class="fil0" d="M13.14 4.26l-3.88 -0.36 -1.55 -3.58c-0.1,-0.25 -0.46,-0.25 -0.57,0l-1.54 3.58 -3.88 0.36c-0.27,0.03 -0.38,0.37 -0.18,0.55l2.93 2.57 -0.85 3.8c-0.06,0.27 0.22,0.48 0.46,0.34l3.35 -1.99 3.35 1.99c0.24,0.14 0.52,-0.07 0.46,-0.34l-0.85 -3.8 2.92 -2.57c0.21,-0.18 0.1,-0.52 -0.17,-0.55z"/>
    <path class="fil0" d="M3.46 0.2c0.2,0.28 0.76,1.46 1.08,2.14 0.05,0.11 -0.09,0.21 -0.18,0.13 -0.55,-0.52 -1.49,-1.43 -1.69,-1.7 -0.15,-0.22 -0.1,-0.52 0.11,-0.68 0.22,-0.16 0.52,-0.11 0.68,0.11z"/>
    <path class="fil0" d="M11.4 0.2c-0.2,0.28 -0.76,1.46 -1.08,2.14 -0.05,0.11 0.09,0.21 0.17,0.13 0.55,-0.52 1.5,-1.43 1.69,-1.7 0.16,-0.22 0.11,-0.52 -0.11,-0.68 -0.21,-0.16 -0.52,-0.11 -0.67,0.11z"/>
    <path class="fil0" d="M14.52 8.26c-0.32,-0.1 -1.61,-0.28 -2.37,-0.37 -0.11,-0.02 -0.17,0.14 -0.06,0.2 0.66,0.37 1.81,0.99 2.13,1.09 0.26,0.09 0.53,-0.05 0.61,-0.31 0.09,-0.25 -0.05,-0.53 -0.31,-0.61z"/>
    <path class="fil0" d="M0.33 8.26c0.33,-0.1 1.62,-0.28 2.37,-0.37 0.12,-0.02 0.17,0.14 0.07,0.2 -0.66,0.37 -1.81,0.99 -2.13,1.09 -0.26,0.09 -0.53,-0.05 -0.62,-0.31 -0.08,-0.25 0.06,-0.53 0.31,-0.61z"/>
    <path class="fil0" d="M6.96 13.74c0,-0.34 0.24,-1.63 0.38,-2.37 0.02,-0.12 0.19,-0.12 0.21,0 0.14,0.74 0.38,2.03 0.38,2.37 0,0.26 -0.22,0.48 -0.49,0.48 -0.26,0 -0.48,-0.22 -0.48,-0.48z"/>
    <path class="fil0" d="M8.28 1.63l-0.57 -1.31c-0.1,-0.25 -0.46,-0.25 -0.57,0l-1.54 3.58 -3.88 0.36c-0.27,0.03 -0.38,0.37 -0.18,0.55l2.93 2.57 -0.85 3.8c-0.06,0.27 0.22,0.48 0.46,0.34l0.44 -0.27c0.73,-4.73 2.79,-8.2 3.76,-9.62z"/>
   </g>
   <path class="fil0" d="M13.14 4.26l-3.88 -0.36 -1.55 -3.58c-0.1,-0.25 -0.46,-0.25 -0.57,0l-1.54 3.58 -3.88 0.36c-0.27,0.03 -0.38,0.37 -0.18,0.55l2.93 2.57 -0.85 3.8c-0.06,0.27 0.22,0.48 0.46,0.34l3.35 -1.99 3.35 1.99c0.24,0.14 0.52,-0.07 0.46,-0.34l-0.85 -3.8 2.92 -2.57c0.21,-0.18 0.1,-0.52 -0.17,-0.55z"/>
  </g>
 </g>
</svg>
